<?xml version="1.0" encoding="UTF-8" standalone="no"?>
<svg
   class="img-fluid"
   id="outputsvg"
   style="transform: matrix(1, 0, 0, 1, 0, 0); transform-origin: 50% 50% 0px; cursor: move; max-height: none; transition: none;"
   width="1024"
   height="1024"
   viewBox="0 0 10240 10240"
   version="1.1"
   sodipodi:docname="logo2.svg"
   inkscape:version="1.2.2 (b0a8486541, 2022-12-01)"
   xmlns:inkscape="http://www.inkscape.org/namespaces/inkscape"
   xmlns:sodipodi="http://sodipodi.sourceforge.net/DTD/sodipodi-0.dtd"
   xmlns="http://www.w3.org/2000/svg"
   xmlns:svg="http://www.w3.org/2000/svg">
  <defs
     id="defs6145">
    <filter
       id="mask-powermask-path-effect9061_inverse"
       inkscape:label="filtermask-powermask-path-effect9061"
       style="color-interpolation-filters:sRGB"
       height="100"
       width="100"
       x="-50"
       y="-50">
      <feColorMatrix
         id="mask-powermask-path-effect9061_primitive1"
         values="1"
         type="saturate"
         result="fbSourceGraphic" />
      <feColorMatrix
         id="mask-powermask-path-effect9061_primitive2"
         values="-1 0 0 0 1 0 -1 0 0 1 0 0 -1 0 1 0 0 0 1 0 "
         in="fbSourceGraphic" />
    </filter>
    <filter
       id="mask-powermask-path-effect9187_inverse"
       inkscape:label="filtermask-powermask-path-effect9187"
       style="color-interpolation-filters:sRGB"
       height="100"
       width="100"
       x="-50"
       y="-50">
      <feColorMatrix
         id="mask-powermask-path-effect9187_primitive1"
         values="1"
         type="saturate"
         result="fbSourceGraphic" />
      <feColorMatrix
         id="mask-powermask-path-effect9187_primitive2"
         values="-1 0 0 0 1 0 -1 0 0 1 0 0 -1 0 1 0 0 0 1 0 "
         in="fbSourceGraphic" />
    </filter>
    <filter
       id="mask-powermask-path-effect9198_inverse"
       inkscape:label="filtermask-powermask-path-effect9198"
       style="color-interpolation-filters:sRGB"
       height="100"
       width="100"
       x="-50"
       y="-50">
      <feColorMatrix
         id="mask-powermask-path-effect9198_primitive1"
         values="1"
         type="saturate"
         result="fbSourceGraphic" />
      <feColorMatrix
         id="mask-powermask-path-effect9198_primitive2"
         values="-1 0 0 0 1 0 -1 0 0 1 0 0 -1 0 1 0 0 0 1 0 "
         in="fbSourceGraphic" />
    </filter>
  </defs>
  <sodipodi:namedview
     id="namedview6143"
     pagecolor="#ffffff"
     bordercolor="#000000"
     borderopacity="0.25"
     inkscape:showpageshadow="2"
     inkscape:pageopacity="0.0"
     inkscape:pagecheckerboard="0"
     inkscape:deskcolor="#d1d1d1"
     showgrid="false"
     inkscape:zoom="0.66183498"
     inkscape:cx="352.0515"
     inkscape:cy="349.78508"
     inkscape:window-width="1755"
     inkscape:window-height="1030"
     inkscape:window-x="0"
     inkscape:window-y="0"
     inkscape:window-maximized="1"
     inkscape:current-layer="outputsvg" />
  <path
     id="rect8405"
     clip-path="none"
     style="display:inline;fill:#000000;stroke:#000000;stroke-width:37.7953;stroke-linecap:round"
     d="m 5617.6982,2573.0391 c -223.875,-20.875 -448.375,-11.1211 -654.375,30.8789 -406.999,82.9999 -804.996,279.9963 -1060.996,525.9961 l -70.996,68.0078 104.004,2.9883 105,3.0078 45.996,-39.0039 c 70,-59 243.992,-169.9962 351.992,-225.9961 121,-62 420,-165 420,-145 0,3 -33.996,37.9883 -75.996,77.9883 -140,131.9998 -261.996,307.0002 -360.996,515 l -54.004,112.0117 h -114.004 -115 v 70 70 h 90.996 c 83,0 91.004,1.9883 84.004,17.9883 -13,33.9999 -55,198.0118 -75,297.0117 -34,162.9998 -57.996,347.9885 -70.996,542.9883 l -11.992,182.0117 h -224.004 c -247,0 -287.004,7.0039 -299.004,54.0039 -10,40 3.992,75.9961 31.992,85.9961 14,6 131,10 260,10 h 234.004 v 62.9883 c 1,104.9999 27.996,427.0118 45.996,527.0117 13,78.9999 64,291.9884 90,377.9883 6,18.9999 3,22.0117 -25,22.0117 -29,0 -30.996,2.0039 -30.996,39.0039 0,21 2.996,51.9844 5.996,68.9844 6,28.9999 9.012,31.0039 57.012,34.0039 l 50,3.0078 41.992,100 c 51,123.9999 127.012,265 142.012,265 3,0 26.984,-12.0117 53.984,-27.0117 57,-30 59,-42.9962 25,-110.9961 -38,-74 -94.988,-219.9961 -87.988,-225.9961 3,-3 75,-5.9961 160,-5.9961 h 154.004 l -6.016,-62.0117 c -3,-34 -8.984,-65 -13.984,-70 -4,-4 -88.012,-9 -187.012,-10 l -180,-2.9883 -19.004,-55 c -32,-96.9999 -73.996,-274.004 -90.996,-384.0039 -15,-105.9999 -45,-438.0079 -45,-508.0078 v -37.9883 h 183.008 c 100,0 225.004,-2.9961 279.004,-5.9961 l 95.996,-7.0117 55.996,-67.9883 55.996,-69.0039 h -329.004 c -216,0 -331.996,-4 -335.996,-10 -9,-15 11.996,-279.0002 35.996,-445 25,-176.9998 61,-340.0119 105,-477.0117 l 35,-107.9883 h 430 430 l -2.988,340 c -2,186.9998 -2,340 0,340 8,0 99,-65.0078 125,-88.0078 l 26.992,-25.9961 V 3921.9063 3638.918 h 208.008 207.988 l 69.004,-70 69.004,-70 h -276.992 -277.012 v -375 c 0,-320.9997 2,-375 15,-375 39,0 128.004,25.9961 194.004,55.9961 170,77.9999 353,254.9963 460,445.9961 l 33.008,58.0078 53.984,-47.0117 c 30,-26 54.004,-51 54.004,-55 0,-13 -48,-85.9884 -110,-167.9883 -55,-70.9999 -151.004,-169.0079 -214.004,-218.0078 -16,-12 -25.988,-25.0039 -22.988,-29.0039 19,-18 312.004,83.0118 454.004,157.0117 l 90.996,47.9883 50.996,-51.9922 c 28,-28 50.996,-55.0039 50.996,-59.0039 0,-11 -205,-110.0001 -330,-160 -203.5,-80.4999 -426.75,-131.9961 -650.625,-152.8711 z m 1467.637,177.8711 c -104,5 -163.012,26.0118 -262.012,92.0117 -68,44.9999 -534.988,508.9883 -582.988,577.9883 -105,152.9998 -92.008,352.9962 31.992,485.9961 49,52.9999 138.992,100.0039 206.992,109.0039 57,8 70.012,-10.9884 72.012,-102.9883 l 1.992,-77.0117 -40,-14.0039 c -54,-19 -111,-76.9962 -130,-130.9961 -18,-55 -17.996,-75.0001 -0.996,-125 24,-67 58.996,-107.0001 145.996,-165 46,-31 154.008,-121.9923 238.008,-201.9922 84,-79.9999 174.004,-160.9961 199.004,-180.9961 114,-90.9999 236.992,-73.9999 361.9921,50 69.9999,68.9999 111.0078,144.0001 118.0078,215 5,46.9999 0.9843,63.9961 -26.0157,120.9961 -25.9999,55.9999 -56.9962,94.004 -180.9962,219.0039 -135,136.9999 -150,155.9922 -150,186.9922 0,57.9999 -19.996,161.0001 -45.996,235 -13,38.9999 -24.004,73.9922 -24.004,76.9922 0,22.9999 48,-19.0003 270,-240 161,-160.9999 263.0041,-270.9923 289.0041,-311.9922 159.9998,-250.9998 83.9919,-538.008 -193.0079,-733.0078 -98.0002,-68 -179.9842,-91.9961 -298.9842,-85.9961 z m -1760,2.0117 c 10,4 12.988,81.9964 12.988,375.9961 v 370 h -392.988 c -217,0 -397,-3.0117 -400,-7.0117 -10,-9 97.988,-211.9884 167.988,-317.9883 104,-156.9999 280.012,-319.0001 407.012,-375 53,-23 186,-52.9961 205,-45.9961 z m -2314.004,135.9961 c -45,0 -53.008,21.9962 -53.008,150.9961 v 119.0039 h -70 -70 v -113.0078 c 0,-99.9999 -2,-116 -20,-135 -25,-26 -56.992,-28 -81.992,-5 -15,14 -18.008,32.0079 -18.008,133.0078 v 117.9883 l -35,6.0156 c -19,4 -46.992,17 -61.992,30 -24,21 -27.012,31 -27.012,80 l 1.016,55.9961 h -121.016 c -137,0 -165.996,10.0039 -165.996,59.0039 0,50.9999 23,59.9883 160,62.9883 l 125,3.0078 v 65 65 l -120.996,2.9883 c -112,2 -123.008,4.0156 -143.008,26.0156 -23,25 -21.992,65 3.008,85 7,6 67.992,11.9883 136.992,12.9883 l 124.004,3.0078 3.008,67.9883 2.988,67.0117 h -121.992 c -112,0 -124.996,1.9922 -145.996,21.9922 -26,25 -29.004,46.0039 -9.004,74.0039 13,17 31.008,20.0039 143.008,24.0039 l 127.988,5 3.008,67.9883 2.988,67.0117 h -122.988 c -96,0 -128.996,3.9961 -145.996,15.9961 -28,19 -29.012,57.0039 -2.012,84.0039 18,18 33.008,20 138.008,20 h 117.988 l 12.012,45.9961 c 10,36.9999 17.992,48 46.992,60 19,8 44,14.0039 55,14.0039 19,0 20,5.9923 20,116.9922 0,93.9999 3.012,120 17.012,135 22,25 48.988,23.0078 77.988,-6.9922 24,-23 25,-31.004 25,-134.0039 0,-60 4.008,-112 8.008,-115 4,-2 36,-2.0039 70,0.9961 l 61.992,5.9961 v 115 c 0,92.9999 3.012,119.0039 17.012,134.0039 19,22 51.984,23.0039 78.984,4.0039 17,-13 19.012,-29.0001 22.012,-135 l 4.004,-120.9961 h 63.984 64.004 v 116.9922 c 0,93.9999 3.012,120 17.012,135 21,24 57.988,23.0078 82.988,-1.9922 18,-18 20,-33.0118 20,-137.0117 V 4343.918 h 68.008 66.992 l 5,121.9922 c 3,66.9999 10,126.0117 15,132.0117 19,18 60,21.9922 80,6.9922 18,-13 21,-29.0079 25,-138.0078 l 5,-122.9883 35,-3.0078 c 45,-4 67,-25.004 80,-74.0039 l 10.996,-37.9883 h 122.012 c 139,0 166.992,-10.004 166.992,-59.0039 0,-48 -21.004,-55.9961 -164.004,-60.9961 l -130.996,-5 v -65 -65 l 130.996,-5 c 139,-5 164.004,-14.004 164.004,-54.0039 0,-12 -6.996,-32.0039 -15.996,-44.0039 -14,-21 -22,-21.9922 -150,-21.9922 h -135 l 3.008,-67.0117 2.988,-67.9883 130,-3.0078 c 102,-2 133.012,-6.0039 147.012,-19.0039 25,-22 23,-54.9962 -5,-80.9961 -20,-19 -36.012,-22.0039 -147.012,-24.0039 l -125,-2.9883 v -65 -65 l 133.008,-5 c 119,-4 134.988,-7 147.988,-25 18,-24 11.016,-64.0078 -13.984,-83.0078 -12,-9 -51.012,-12.9922 -132.012,-11.9922 -63,1 -120.992,0.9961 -126.992,0.9961 -8,-1 -13.008,-15.0078 -13.008,-33.0078 0,-43 -17.988,-105 -32.988,-115 -6,-4 -27.012,-8.9883 -47.012,-12.9883 l -35,-5 -2.988,-120 c -2,-107.9999 -4.008,-122.0117 -23.008,-137.0117 -28,-23 -54.004,-22.9883 -79.004,2.0117 -18,18 -20,33.004 -20,134.0039 0,81.9999 -2.992,114.9883 -11.992,117.9883 -7,2 -39,2 -70,0 l -55.996,-4.0039 -4.004,-120 c -3,-104.9999 -5.012,-120.9844 -22.012,-133.9844 -26,-19 -54.988,-18.0117 -77.988,2.9883 -15,14 -18.008,32.0001 -18.008,135 v 118.0078 h -65 -65 v -99.0039 c 0,-132.9999 -14.992,-169.9961 -66.992,-170.9961 z m -298.008,435 h 430 430 v 435 435 l -432.988,2.9883 -432.012,2.0117 2.012,-437.0117 z m 3987.012,116.9922 c -90,-6 -147.016,14.0078 -196.016,68.0078 -41,44.9999 -50.988,75.9922 -42.988,126.9922 12,71.9999 90.988,112.996 117.988,60.9961 39,-77 137.008,-76.996 193.008,-0.9961 28,37.9999 32,111.0039 10,159.0039 -11,23 -121.004,142.9923 -274.004,296.9922 -140,142.9998 -257,262 -260,265 -3,4 -25.996,26.0039 -50.996,49.0039 -85,74.9999 -195.992,77.0077 -296.992,3.0078 -52,-37 -99.008,-110.9962 -108.008,-165.9961 -10,-71.9999 17.004,-113.0158 189.004,-286.0156 l 155.996,-157.9883 -20.996,-45.9961 c -11,-26 -24.004,-79.0118 -29.004,-117.0117 -5,-39 -11.004,-72.9961 -14.004,-75.9961 -8,-7 -367.992,352.9922 -411.992,411.9922 -73,98.9999 -99.004,229.0118 -69.004,347.0117 23,88.9999 51.008,141.004 113.008,209.0039 62,68.9999 131.996,115.9922 210.996,141.9922 77,26 213,21.0039 295,-10.9961 86,-33 174.992,-109.9964 456.992,-395.9961 270,-274.9997 307.996,-324.004 335.996,-434.0039 35,-136.9999 2.008,-272.0001 -86.992,-355 -65,-61 -125.992,-87.0078 -216.992,-93.0078 z m -3554.004,58.0078 c -213,0 -230.008,5.004 -248.008,69.0039 -5,20 -10,108.9845 -10,198.9844 0,170.9998 9.012,219.0156 47.012,241.0156 11,6 89.988,10.9961 202.988,10.9961 156,0 189.004,-2.9961 209.004,-15.9961 42,-30 50.996,-71.0119 50.996,-237.0117 0,-181.9998 -3.988,-207.9922 -37.988,-241.9922 -25,-25 -25.004,-25 -214.004,-25 z m 4322.9882,340.9961 c -2.9999,1 -28,25 -55,55 l -48.9843,54.0039 35.9961,117.9883 c 55.9999,181.9998 96.9922,417.0118 96.9922,562.0117 v 50 h -445.0002 -445 v -87.0117 -87.9883 l -70,70 -70,70 -4.004,202.9883 c -2,124.9998 0.02,202.0117 6.016,202.0117 5,0 38.984,-15.9961 73.984,-35.9961 l 64.004,-36.0156 v -73.9844 -74.0039 h 439.004 c 408.9997,0 440.0079,0.9922 443.0079,16.9922 2,10 -1.0157,65.0078 -6.0157,123.0078 -16.9999,189.9998 -17.996,180.9922 39.004,211.9922 27.9999,15 54,26 60,25 5,-2 14.9961,-24.9961 20.996,-50.9961 59,-229.9998 61.0039,-596.9925 4.004,-886.9922 -29,-150.9999 -120.004,-431.0078 -139.004,-428.0078 z m -1995.0002,540.5078 c -11.25,0.5 -31,13.9883 -65,40.4883 -285.999,225.9997 -574.996,528.0079 -655.996,688.0078 -36,71.9999 -55,147.9962 -55,225.9961 0,105.9999 33,186.004 135,334.0039 94,134.9999 110,174.0001 110,265 0,101.9999 -30.992,168.9962 -121.992,265.9961 -113,118.9999 -255.012,212.004 -457.012,299.0039 -170,71.9999 -158.996,63.9883 -140.996,107.9883 34,80.9999 130.004,152.0118 309.004,227.0117 224,93.9999 457.996,152.9883 705.996,177.9883 79,8 273.996,6.0117 365.996,-2.9883 55,-6 146.004,-21.0039 204.004,-34.0039 l 105,-21.9922 -31.992,-17.0117 c -17,-9 -62,-39.9883 -100,-67.9883 l -67.012,-52.0117 -70.996,17.0117 c -38,8 -88.988,18.9922 -112.988,21.9922 l -42.012,6.9922 2.012,-448.9844 2.988,-449.0039 73.008,-3.0078 71.992,-2.9883 v -69.0039 -70 h -75 -75 v -420.9961 c 0,-477.9995 10.004,-438.0117 -90.996,-367.0117 -46,31.9999 -59.004,47.0117 -59.004,67.0117 -1,14 -2.996,138.9962 -5.996,275.9961 l -5,250 29.004,65 c 72,157.9998 69.996,355.9923 -4.004,501.9922 -24,47.9999 -24.008,49.0042 -23.008,344.0039 0,161.9998 -2,297.9922 -5,301.9922 -13,13 -123.996,-18.9884 -200.996,-57.9883 -44,-22 -116,-67 -160,-100 -44,-33 -82.992,-60 -86.992,-60 -16,0 -118.008,41.9883 -118.008,47.9883 0,9 51.996,64.0156 85.996,91.0156 15,12 24.016,23.9922 21.016,26.9922 -3,4 -39.004,-3.9961 -79.004,-15.9961 -121,-36 -237.012,-110 -172.012,-110 23,0 203.004,-97.0001 304.004,-165 289,-192.9998 422.996,-432.0002 365.996,-655 -21,-79.9999 -43.996,-120.0001 -135.996,-235 -93,-114.9999 -121.996,-175.9962 -120.996,-255.9961 0,-90.9999 34.996,-152.004 160.996,-279.0039 104,-106.9999 287.996,-251.0001 410.996,-325 35,-21 66.008,-39.9961 68.008,-40.9961 2,-2 -20.992,-30.0079 -51.992,-63.0078 -54,-59 -127.012,-185.9922 -127.012,-221.9922 0,-25.5 -2.754,-38 -14.004,-37.5 z m -2207.734,373.4961 c -11.75,-9.75 -34.762,-5.5039 -83.262,0.9961 l -46.992,6.9922 6.992,111.0156 c 11,195.9998 68.996,539.9922 95.996,571.9922 13,15 38.012,21.0078 102.012,23.0078 42,1 47.988,-1.0156 42.988,-16.0156 -38,-135.9999 -87.992,-437.0002 -101.992,-615 -3.5,-49.5 -3.992,-73.2383 -15.742,-82.9883 z m 3577.734,221.9922 -85,43.0078 c -81,40.9999 -686.988,334.9962 -907.988,440.9961 l -103.008,49.0039 v 605 605 l 23.008,14.0039 c 12,8 192.992,96.9923 401.992,196.9922 209,100.9999 439,213 510,250 72,35.9999 141.004,67.0078 154.004,68.0078 14,0 117,-44.0079 230,-98.0078 509.9996,-245.9998 837.004,-409 854.004,-425 16,-16 16.9922,-59.0045 16.9922,-619.0039 0,-582.9994 -1.004,-603.0039 -19.004,-614.0039 -10.9999,-7 -90.9883,-45.9962 -177.9882,-85.9961 -86.9999,-41 -324.012,-153.9923 -527.012,-251.9922 z m 9.004,182.0117 240,115.9961 c 132,63.9999 312.0002,150.9883 400.0002,192.9883 169.9998,80.9999 185,89.0078 185,103.0078 0,5 -5.9922,9.0039 -11.9922,9.0039 -7,0 -72.9962,29 -145.9961,65 -73,36 -134,65 -135,65 -1,0 -76.0119,-35.0079 -167.0119,-78.0078 -91,-44 -199,-95.004 -240,-114.0039 -41,-20 -156.004,-74.9923 -254.004,-121.9922 l -178.984,-85.9961 153.984,-75 z m -490,240 404.004,195.9961 c 223,107.9999 407.004,198 409.004,200 6,5 -317.012,165.0039 -332.012,164.0039 -6,0 -21.996,-6.0117 -35.996,-12.0117 -14,-6 -119,-56.9923 -235,-111.9922 -115,-56 -262,-125.9961 -325,-155.9961 -63,-30 -144,-68 -180,-85 l -65,-32.0117 30,-10.9961 c 17,-7 98,-42.9922 180,-81.9922 z m -2822.988,170.9961 c -26,0 -53,4.9922 -60,11.9922 -7,7 -12.012,42 -12.012,85 v 73.0078 h 60 60 v -85 -85 z m -662.012,30 v 240 240 h 240.996 c 216,0 241,-1.9961 235,-15.9961 -3,-9 -5.996,-117.0001 -5.996,-240 V 5598.918 h -235 z m 1230,0 -171.992,1.9922 -173.008,3.0078 -2.988,56.9922 -3.008,57.0117 -41.992,2.9883 -42.012,3.0078 -5,60 -5,60 -95,2.9883 -95,3.0078 2.012,179.0039 0.996,180 h -64.004 -64.004 v 60 59.0039 l 63.008,2.9883 61.992,3.0078 v 116.9922 c 0,65.9999 -4,121 -10,125 -5,4 -33.992,7 -61.992,5 l -53.008,-2.9883 v -125 -124.0039 h -55.996 -55.996 l 4.004,-60 2.988,-60 h -56.992 -58.008 v 119.0039 120 l 53.008,2.9883 51.992,3.0078 3.008,116.9922 2.988,117.0117 -115.996,2.9883 c -113,3 -115.992,2 -121.992,-20 -3,-12 -2.004,-37.9922 0.996,-56.9922 7,-33 8.004,-34.0117 59.004,-37.0117 l 51.992,-2.9883 0.996,-60 2.012,-60 -50,4.0039 c -32,2 -53.008,-1.0039 -58.008,-9.0039 -4,-6 -6.988,-62.0079 -7.988,-123.0078 V 6213.918 l -61.016,-3.0078 -60.996,-2.9883 v 300.9961 300 h 355 355 v -180 -180 h 125 125 v -125 -125 h 65 65 v -114.0039 c 0,-128.9999 -2.004,-125.9961 85.996,-125.9961 h 54.004 v -180 z m 3670.0002,100 v 460.9961 460 l -415,205 c -229.0002,111.9999 -417.0042,204.0039 -419.0042,204.0039 -1,0 -5.984,-3.0117 -8.984,-7.0117 -4,-3 -7.012,-209.9847 -7.012,-458.9844 v -453.0078 l 153.008,-79.0039 c 83,-43 155,-77 160,-75 4,2 6.992,74.004 6.992,159.0039 0,116.9999 3.008,154.0039 13.008,154.0039 6,-1 70.9922,-31.0079 141.9922,-68.0078 l 130,-66.9922 3.0078,-158.0078 2.9882,-156.9922 119.004,-60 z m -1860.0002,10 22.012,9.0039 c 13,5 146.988,67.9962 297.988,140.9961 151,71.9999 332.008,158.9922 403.008,191.9922 l 126.992,60.9961 -1.992,455 c -2,292.9997 -7.008,456.0078 -13.008,458.0078 -5,1 -194,-86.9962 -420,-195.9961 l -410,-197.0117 -2.988,-460.9961 z m -1929.004,9.0039 -2.988,117.9883 -3.008,118.0078 -66.992,2.9883 -68.008,3.0078 v 69.0039 70 h -65 -65 v 115 115 h -124.004 -122.988 l 4.004,-52.0117 c 7,-78 6.992,-77.9883 61.992,-77.9883 h 50 v -97.0117 -110 c 1,-9 18.996,-12.9883 55.996,-12.9883 h 55 v -65 -65 h 73.008 74.004 l -1.016,-62.0117 -0.996,-62.9883 73.008,-3.0078 z m -760.996,20 v 110.9961 110 h -115 -115.996 l 3.008,-107.0117 2.988,-107.9883 113.008,-3.0078 z m 760,470.9961 v 120 120 h 60 60 v -120 -120 h -60 z m -15,239.0039 -60,2.9883 -60,3.0078 -2.988,49.0039 c -5,71.9999 -1.004,75.9961 65.996,75.9961 h 59.004 l -1.016,-65 z m -255,130.9961 v 115 115 h 195 195 v -115 -115 h -60 -60 v 55 55 h -75 -75 v -55 -55 h -60 z"
     sodipodi:nodetypes="scccccccscccccccsccccsccsccccssccccscccsccsccccscsccccscccccccsccccccccccssccccsccccccscscccccccccccscccccscscccccscscccccscccsccscccccsscccccccccccsccccccscsscccssccscccsccccccscsscccccccccccsscccccscscccccccccccccccssccccssccccccscccsccccccccccccccsccccccccccccccccccccscscscsssccccsccccccccsccccscccccccsccscsccccccccccccccccccccccscccccccccssscccsccccccccssscccccccsccccccccccccscccccccssssccccccccccscscccccssscccccscccscsccccccccccccccccccccccsccccccccccccccccccccccccccccccccccccccccccsscccccccscscccsccccccccccccccccccccccccccccccccscccscccccccccccccccccccccccccccccccscccccccccccccccccccc" />
  <g
     id="g8403"
     transform="translate(-17012.712,-786.13706)"
     style="display:inline;fill:#ffffff;fill-opacity:1"
     clip-path="none" />
</svg>
