<?xml version="1.0" encoding="UTF-8" standalone="no"?>
<!-- Created with Inkscape (http://www.inkscape.org/) -->

<svg
   width="97.854797mm"
   height="135.39665mm"
   viewBox="0 0 97.854797 135.39665"
   version="1.1"
   id="svg365"
   xml:space="preserve"
   inkscape:version="1.2.2 (b0a8486541, 2022-12-01)"
   sodipodi:docname="map_pin_c.svg"
   xmlns:inkscape="http://www.inkscape.org/namespaces/inkscape"
   xmlns:sodipodi="http://sodipodi.sourceforge.net/DTD/sodipodi-0.dtd"
   xmlns="http://www.w3.org/2000/svg"
   xmlns:svg="http://www.w3.org/2000/svg"><sodipodi:namedview
     id="namedview367"
     pagecolor="#ffffff"
     bordercolor="#000000"
     borderopacity="0.25"
     inkscape:showpageshadow="2"
     inkscape:pageopacity="0.0"
     inkscape:pagecheckerboard="0"
     inkscape:deskcolor="#d1d1d1"
     inkscape:document-units="mm"
     showgrid="false"
     inkscape:zoom="0.6084393"
     inkscape:cx="-220.23561"
     inkscape:cy="393.63006"
     inkscape:window-width="1755"
     inkscape:window-height="1030"
     inkscape:window-x="0"
     inkscape:window-y="0"
     inkscape:window-maximized="1"
     inkscape:current-layer="layer2" /><defs
     id="defs362" /><g
     inkscape:groupmode="layer"
     id="layer2"
     inkscape:label="Layer 2"
     transform="translate(-26.03029,-63.9964)"><path
       style="fill:#2aa81b;fill-opacity:1;stroke-width:8;stroke:#ffffff;stroke-opacity:1;stroke-dasharray:none;paint-order:fill markers stroke"
       d="m 73.237896,199.01857 c -1.31001,-0.57595 -5.55149,-5.47693 -12.73191,-14.71156 -18.560105,-23.86991 -30.032785,-45.04794 -33.589875,-62.00537 -0.93079,-4.43731 -1.16431,-11.43022 -0.52703,-15.78213 1.63741,-11.181485 6.20847,-20.364045 14.03152,-28.187084 13.206595,-13.206607 32.552435,-17.721172 50.263985,-11.729657 7.18373,2.430132 13.365484,6.284947 18.810194,11.729657 7.82305,7.823039 12.39411,17.005599 14.03152,28.187084 0.63728,4.35191 0.40376,11.34482 -0.52703,15.78213 -3.55709,16.95743 -15.02977,38.13546 -33.589884,62.00537 -4.25287,5.46955 -8.53758,10.68223 -10.74214,13.06863 -1.78624,1.93358 -3.55255,2.46807 -5.42935,1.64293 z"
       id="path471"
       sodipodi:nodetypes="ssssssssssss" /></g><g
     inkscape:label="Layer 1"
     inkscape:groupmode="layer"
     id="layer1"
     transform="translate(-26.03029,-63.9964)"><path
       style="display:inline;fill:#ffffff;stroke:none;stroke-width:1;stroke-linecap:round;fill-opacity:1"
       d="m 74.344965,83.834966 -2.24896,1.13791 c -2.14312,1.084792 -18.17656,8.863442 -24.02385,11.668032 l -2.72542,1.29656 v 16.007292 16.00729 l 0.60876,0.37052 c 0.3175,0.21166 5.10624,2.56625 10.63603,5.21208 5.5298,2.67229 11.61521,5.63563 13.49375,6.61458 1.905,0.9525 3.73073,1.77292 4.07469,1.79938 0.37042,0 3.09563,-1.16438 6.08542,-2.59313 13.49373,-6.50874 22.145725,-10.82145 22.595515,-11.24479 0.42333,-0.42333 0.44958,-1.56116 0.44958,-16.37781 0,-15.425192 -0.0266,-15.954472 -0.50281,-16.245512 -0.29104,-0.18521 -2.4074,-1.21699 -4.709265,-2.27532 -2.30187,-1.08479 -8.57282,-4.07438 -13.94386,-6.66729 z m 0.23823,4.815722 6.35,3.06907 c 3.4925,1.69333 8.255,3.9949 10.58334,5.10615 4.49791,2.14312 4.89479,2.355 4.89479,2.72541 0,0.13229 -0.15855,0.23823 -0.3173,0.23823 -0.18521,0 -1.93135,0.767292 -3.86281,1.719792 -1.93146,0.9525 -3.54542,1.71979 -3.57187,1.71979 -0.0265,0 -2.01115,-0.92625 -4.41886,-2.06395 -2.40771,-1.16417 -5.26521,-2.513652 -6.35,-3.016362 -1.08479,-0.52916 -4.12761,-1.98417 -6.72052,-3.22771 l -4.73562,-2.27531 4.07416,-1.98438 z m -12.96458,6.35 10.68927,5.185742 c 5.90021,2.85749 10.76864,5.23874 10.82156,5.29166 0.15875,0.13229 -8.38761,4.36573 -8.78448,4.33927 -0.15875,0 -0.58198,-0.15906 -0.9524,-0.31781 -0.37041,-0.15875 -3.14854,-1.50792 -6.2177,-2.96313 -3.04271,-1.48166 -6.93209,-3.33364 -8.59896,-4.12739 -1.66688,-0.79375 -3.81,-1.79917 -4.7625,-2.24896 l -1.71979,-0.846982 0.79375,-0.29093 c 0.44979,-0.18521 2.59291,-1.13751 4.7625,-2.16938 z m 37.43854,7.963862 v 12.19719 12.17083 l -10.98021,5.42396 c -6.05896,2.96333 -11.03323,5.3976 -11.08615,5.3976 -0.0265,0 -0.15833,-0.0797 -0.2377,-0.18552 -0.10583,-0.0794 -0.18553,-5.55584 -0.18553,-12.14396 v -11.98583 l 4.04834,-2.09031 c 2.19604,-1.13771 4.10104,-2.03729 4.23333,-1.98438 0.10584,0.0529 0.185,1.95803 0.185,4.20698 0,3.09562 0.0796,4.07469 0.34417,4.07469 0.15875,-0.0265 1.87833,-0.82042 3.75688,-1.79937 l 3.43958,-1.77251 0.0796,-4.18062 0.0791,-4.15375 3.14865,-1.5875 z m -49.2125,0.26458 0.5824,0.23823 c 0.34396,0.13229 3.88906,1.79907 7.88427,3.73052 3.9952,1.905 8.78437,4.20667 10.66291,5.0798 l 3.36,1.61385 -0.0527,12.03854 c -0.0529,7.75228 -0.18542,12.06521 -0.34417,12.11812 -0.1323,0.0265 -5.13292,-2.30177 -11.1125,-5.18573 l -10.84792,-5.2126 -0.0791,-12.19718 z"
       id="path339" /></g></svg>
